<svg width="2000" height="2000" viewBox="0 0 2000 2000" fill="none" xmlns="http://www.w3.org/2000/svg">
<g clip-path="url(#clip0_0_1)">
<rect width="2000" height="2000" rx="250" fill="#2E3440"/>
<path d="M834 947V444H1137.3C1289.05 498.074 1311.44 658.043 1303.66 731.268C1299.6 803.178 1255.07 947 1109.41 947H834Z" fill="#5E81AC" stroke="black"/>
<path d="M584.391 1720V260H1070.39C1167.72 260 1252.39 278.667 1324.39 316C1397.72 353.333 1454.39 406 1494.39 474C1534.39 540.667 1554.39 619.333 1554.39 710C1554.39 799.333 1533.72 878 1492.39 946C1452.39 1014 1396.39 1066.67 1324.39 1104C1252.39 1141.33 1167.72 1160 1070.39 1160H834.391V1720H584.391ZM834.391 934H1070.39C1139.72 934 1195.06 914 1236.39 874C1279.06 832.667 1300.39 778 1300.39 710C1300.39 640.667 1279.06 586 1236.39 546C1195.06 506 1139.72 486 1070.39 486H834.391V934Z" fill="#88C0D0"/>
</g>
<defs>
<clipPath id="clip0_0_1">
<rect width="2000" height="2000" fill="white"/>
</clipPath>
</defs>
</svg>
